<svg id="BACKGROUND" enable-background="new 0 0 1400 1400" version="1.0" viewBox="0 0 964.72 431.44" xml:space="preserve" xmlns="http://www.w3.org/2000/svg" xmlns:xlink="http://www.w3.org/1999/xlink">
<g transform="translate(-559.27 -973.03)">
	<defs>
		<rect id="SVGID_1_" width="1400" height="1400"/>
	</defs>
	<clipPath id="SVGID_2_">
		<use width="100%" height="100%" overflow="visible" xlink:href="#SVGID_1_"/>
	</clipPath>
	
	
	
	
	
	
	
	
	
	
	
	
	
	
	
	
	
	
	
	
	
	
	
	
	
	
	
	
	
	
	
	
	
	
	
	
	
	
	
	
	
	
	
	
	
	
	
	
	
<path id="mini-arc" transform="matrix(.92904 0 0 1 595.73 11.164)" d="m1124.8 1554.6c-24.9-31.1-66-46-105.2-41.8-20.6 2.2-39.3 10.2-55.9 22.5-17.4 12.9-33.8 29.7-56.6 31.3-38 2.7-67.9-29.8-89.9-56.2-14.4-17.3-30.5-33.3-53.4-37.6-16.8-3.2-34 0.4-50.2 5.2-16.9 5-33.5 11.4-51 14.2-18 2.8-35.9-0.1-51.9-8.9-35.6-19.6-58.5-55.8-84-86.1-57.5-68.4-137.3-126.9-229.9-128.5-41.7-0.8-83.7 9.4-118.6 32.6-39.3 26-63 67.4-78.8 110.8-4 11-7.6 22.2-10.9 33.4-2.8 9.2 11.4 14.2 14.2 4.9 13-43.7 29.8-89.1 63.9-120.9 29.7-27.8 69.3-42.1 109.5-45.3 90-7 170.2 45.6 228.1 109.9 27.2 30.2 49.4 65.7 81.8 90.9 14.9 11.6 32.3 20.1 51.1 22.7 17.7 2.4 35.4-1.4 52.3-6.4 16.5-4.9 32.7-11.2 49.8-13.7 18.3-2.7 35.1 1.6 49.2 13.9 15.8 13.8 27 32.1 42.4 46.3 13.6 12.5 29.1 23.5 46.8 29.5s36.8 6 54-1.6c21-9.3 36-27.7 56.3-38.1 33.1-16.9 75.1-13 105.5 8 7.6 5.3 14.3 11.6 20.1 18.8 6 7.5 17.4-2.3 11.3-9.8z" clip-path="url(#SVGID_2_)" fill="#006680"/><g id="top-right-blob" transform="matrix(-1 0 0 1 1524.9 6.6986)" clip-path="url(#SVGID_2_)" fill="#045">
		<path d="m172.5 1032.5c-12.8-20.3-31.6-35.7-54.4-43.5-20.9-7.2-45-6.9-66.1-0.5-22.8 6.9-42.4 20.6-56.5 39.7-15.6 21.2-21.5 47.9-23.4 73.7-0.1 1.1-0.1 2.2-0.2 3.3l-0.5 0.5c-0.4 0.2-0.9 0.4-1.2 0.6-1.1 0.6-2.2 1.2-3.2 1.8-0.1 0.1-0.3 0.1-0.4 0.2-0.1 0-0.2 0.1-0.3 0.1-1.2 0.4-2.4 0.8-3.5 1.2-3.1 1-6.3 1.9-9.5 2.8-13.1 3.7-25.2 8.6-35.4 17.8-20.6 18.7-26.5 48-21.9 74.4 4.5 25.9 19.7 50 37 69.3 16.7 18.6 37.4 32.9 60.5 42.4 45.5 18.8 98.9 9.5 133.3-26.5 16.9-17.7 27.7-40.1 29.4-64.6 0.4-5.6 0-11.2-0.7-16.8-0.4-3.4-0.9-6.8-1.1-10.2-0.2-2.7-1.3-8.4-0.1-10.8l-0.3 2.2c0.2-1 0.3-2 0.5-3s0.4-2 0.7-3c0.4-1.5 0.8-2.9 1.3-4.4 0.1-0.4 0.7-1.9 0.9-2.6 1.9-4.7 4.8-9.2 7.3-13.5 6.5-11.1 13.2-21.9 18.1-33.8 4.2-10.4 6.3-21.5 6.9-32.6 1-22-5.4-45.4-17.2-64.2z"/>
		<path d="m149.2 1101.6v-0.2-0.5c-0.1 0.4-0.1 0.8-0.1 1.1 0-0.1 0-0.3 0.1-0.4z"/>
		<path d="m143.7 1063.3c0.8 3.6 0.5 1.5 0 0z"/>
	</g><path id="lower-right-blob" transform="matrix(-1 0 0 1 1524.9 6.6986)" d="m420.1 1377.1c-2.6-29.7-7.5-59.3-14.4-88.3-6.1-25.6-13.5-50.8-24.4-74.8-9.1-20.2-21.7-40.2-38.9-54.6-18.3-15.4-41.1-24.9-65.2-23.9-20-3.3-41.1 1.4-59.7 10.2-13.2 6.3-24.9 15.2-36.3 24.1-5.1 4-10.2 8.1-15.3 12.2-0.9 0.7-1.9 1.5-2.8 2.2-0.3 0.3-0.6 0.5-0.8 0.7s-0.5 0.3-0.8 0.6c-2.9 2.1-5.7 4.3-8.7 6.3-22.8 15.7-48.1 27.2-72.9 39.4-24 11.8-47 24.8-67.8 41.7-20.7 16.9-37.4 38.3-46.6 63.4-8.6 23.4-10.1 51.5-0.9 74.9 10.4 26.3 31.1 44.4 56.1 56.7 25.1 12.4 51.8 22.3 78.3 31.4 52.9 18.2 109.6 31.2 165.9 27.1 51.5-3.7 111.8-20.4 140.6-67.2 15.1-24.4 17-54.2 14.6-82.1z" clip-path="url(#SVGID_2_)" fill="#d5f6ff"/><g id="dotted" transform="matrix(-1 0 0 1 1596.8 -34.873)" clip-path="url(#SVGID_2_)" fill="#dbe3e2">
		<path d="m348.6 1087.5c-9.7 0-9.7 15 0 15s9.7-15 0-15z"/>
		<path d="m366.8 1040.6c-9.7 0-9.7 15 0 15s9.7-15 0-15z"/>
		<path d="m335.7 1061.1-2.6-2.6c-1.4-1.4-3.4-2.2-5.3-2.2-1 0-2 0.2-2.9 0.6-0.9 0.3-1.7 0.8-2.4 1.6-1.3 1.4-2.3 3.3-2.2 5.3s0.8 3.9 2.2 5.3l2.6 2.6c1.4 1.4 3.4 2.2 5.3 2.2 1 0 2-0.2 2.9-0.6 0.9-0.3 1.7-0.8 2.4-1.6 1.3-1.4 2.3-3.3 2.2-5.3s-0.8-3.9-2.2-5.3z"/>
		<path d="m372 1087.5c-9.7 0-9.7 15 0 15s9.7-15 0-15z"/>
		<path d="m339.5 1132.9c-0.9-1.7-1.7-3.5-2.6-5.2-1.8-3.5-7-4.8-10.3-2.7-3.6 2.3-4.6 6.5-2.7 10.3 0.9 1.7 1.7 3.5 2.6 5.2 1.8 3.5 7 4.8 10.3 2.7 3.6-2.4 4.5-6.6 2.7-10.3z"/>
		<path d="m338.2 1014.6c-9.7 0-9.7 15 0 15 9.6 0 9.7-15 0-15z"/>
		<path d="m387.7 1056.3h-1.7c-9.7 0-9.7 15 0 15h1.6c9.7 0 9.7-15 0.1-15z"/>
		<path d="m309.6 1090.1c-9.7 0-9.7 15 0 15 9.6 0 9.6-15 0-15z"/>
		<path d="m370.5 1130.4c-0.9-1.7-1.7-3.5-2.6-5.2-1.8-3.5-7-4.8-10.3-2.7-3.6 2.3-4.6 6.5-2.7 10.3 0.9 1.7 1.7 3.5 2.6 5.2 1.8 3.5 7 4.8 10.3 2.7 3.6-2.4 4.5-6.6 2.7-10.3z"/>
	</g><g id="big-loop" transform="matrix(-1 0 0 1 1524.9 6.6986)" clip-path="url(#SVGID_2_)" fill="#fd8676">
		<path d="m540.3 1142c-41.4-1.6-85.4 15.5-119.9 48.2-16 12.8-30.8 27.1-44.2 42.6-38.3 44.3-64.8 99.4-74 157.4-10.3 64.4 2.7 137.6 57.8 178.9 26.4 19.8 59.1 28 91.8 23.9 30.9-3.9 60.2-17.6 85.7-35.1 52.5-36.1 92.9-90.9 114.2-150.7 20.6-57.9 26.3-124.1 2.5-182-22.8-55.2-66.7-81.4-113.9-83.2zm32.8 46c1.3 0.6 2.5 1.3 3.7 2 0.1 0 0.1 0.1 0.2 0.1 0.3 0.2 0.5 0.4 0.6 0.4 2.5 1.6 5 3.4 7.4 5.2 2.4 1.9 4.7 3.8 6.9 5.9 0.8 0.8 1.6 1.7 2.5 2.5 0.6 0.6 1.1 1.2 1.7 1.8 4 4.6 7.7 9.5 11 14.6 0.8 1.2 1.5 2.4 2.3 3.6 0.1 0.2 0.2 0.4 0.3 0.5-0.1 0.7 2 3.7 2.3 4.4 0.8 1.5 1.5 3 2.2 4.5 2.7 5.7 5 11.6 7 17.6 0.5 1.6 1.1 3.3 1.6 4.9 0.1 0.3 0.3 1 0.5 1.7-0.1-0.2 0.7 2.7 0.9 3.3 0.5 1.9 0.9 3.9 1.3 5.8 1.3 6.3 2.4 12.7 3.1 19.1s1.2 12.8 1.3 19.2v0.3c0 0.1 0.1 0.5 0 1.1v0.7 0.1c0 1.2 0 2.4-0.1 3.6-0.1 3.6-0.3 7.3-0.6 10.9-1.1 14.2-3.2 28.4-6.4 42.3-0.4 1.9-0.9 3.7-1.3 5.6-0.1 0.3-0.1 0.5-0.2 0.8 0 0.1-0.1 0.2-0.1 0.4-1.1 3.7-2.1 7.4-3.3 11.1-2.2 6.8-4.6 13.5-7.2 20.2-5.2 13.1-11.2 26.5-18.7 38.5-0.3 0.5-0.8 1.2-1.1 1.8-0.9 1.4-1.7 2.8-2.6 4.2-2.1 3.3-4.2 6.5-6.4 9.6-4.1 5.9-8.3 11.6-12.8 17.2s-9.1 11-14 16.2c-2.4 2.6-5 5.1-7.4 7.7-0.3 0.3-0.7 0.6-1 1l-4.8 4.5c-10.3 9.4-21.3 18.1-32.9 25.7-2.8 1.8-5.6 3.6-8.5 5.3-0.3 0.2-0.5 0.3-0.6 0.4-0.1 0-0.2 0.1-0.3 0.1-1.8 1-3.6 2-5.4 2.9-2 1-4 2-6 2.9-6.7-3.7-15.1-3.7-21.8 1.3-0.4 0.3-3 1.8-3.4 2.3l-1.2 0.6c-1.3 0.6-2.6 1.1-3.9 1.6-0.1 0-0.2 0.1-0.5 0.1 0.7-0.1 0.9 0-0.7 0.3-0.2 0-0.4 0.1-0.6 0.1-0.1 0.1-0.3 0.1-0.3 0.2 0-0.1 0.1-0.1 0.2-0.1-2.8 0.5-5.5 0.9-8.4 1.1h-0.8c-1.8-0.2-3.6-0.2-5.4-0.5-1.4-0.2-2.9-0.4-4.3-0.7-0.4-0.1-1.7-0.4-2.5-0.6-1-0.3-2.3-0.7-2.8-0.9-1.6-0.6-3.1-1.2-4.7-1.9-1.3-0.6-2.6-1.2-3.9-1.9-0.7-0.4-1.5-0.8-2.2-1.2 0.4 0.2 0.6 0.3 0.9 0.5-0.3-0.2-0.6-0.3-0.8-0.5-3.2-2.1-6.3-4.3-9.2-6.7-2.6-2.1-5.1-4.4-7.5-6.8 0.2 0.2-1.5-1.6-2.2-2.3-1.6-1.8-3.1-3.5-4.7-5.4-4.9-5.9-9.5-12.1-13.9-18.4-4.2-6-8.2-12.1-11.9-18.4-0.6-1-1.2-2.1-1.8-3.1 0.1 0.2-1.6-2.8-1.9-3.5-1.7-3.2-3.4-6.5-4.9-9.8-3.2-6.8-6-13.9-8.3-21-0.4-1.4-0.8-2.8-1.3-4.2-0.2-0.7-0.4-1.5-0.5-2.2-0.9-3.7-1.6-7.5-2.1-11.3-0.5-3.4-0.8-6.9-1.1-10.3-0.1-1.6-0.2-3.2-0.2-4.8v-1.8-0.1c0.4-7.1 0.7-14.2 1.8-21.3 0.5-3.1 1-6.3 1.7-9.4 0.4-1.8 0.8-3.6 1.2-5.5 0.2-0.8 0.4-1.6 0.6-2.3 0.4-1.9 0.2-1.4 0-0.4 1.1-6.4 4.1-13.1 6.3-19.1 5.1-13.6 11.3-26.7 18.2-39.5 1.7-3.1 3.4-6.3 5.2-9.4 0.4-0.6 0.8-1.4 1-2-0.1 0.2-0.3 0.5-0.4 0.9 0.8-1.7 2-3.3 2.9-4.9 3.9-6.4 7.9-12.7 12-19 8.3-12.7 17-25.1 26.6-36.8 4.8-5.8 9.7-11.5 14.9-17 0.5-0.6 1.1-1.1 1.6-1.7 8.1-6.6 16.6-12.8 25.3-18.5 2.5-1.6 5-3.2 7.6-4.8l4.5-2.7c0.2-0.1 0.4-0.3 0.6-0.4l0.8-0.4c5.7-3.1 11.4-6.1 17.3-8.9 4.1-1.9 8.2-3.7 12.3-5.4 0.5-0.1 1-0.1 1.3-0.2 3.5-0.7 6.9-1.3 10.4-1.8 3.2-0.4 6.5-0.7 9.8-0.9 0.4 0 2.3 0 3.1-0.1 1.1 0 2.5 0.1 2.9 0.1 3.2 0.2 6.5 0.5 9.7 1 1.5 0.2 3 0.5 4.4 0.8 0.7 0.1 1.5 0.3 2.2 0.4 0.2 0 0.6 0.1 1 0.2 0.6 0.2 2.7 0.8 3.2 0.9 1.4 0.5 2.8 1 4.3 1.5 3.1 1.8 6.2 3.2 9.2 4.7z"/>
		<path d="m629.8 1307.5c-0.1-0.3 0-1.4 0-1.9-0.1-0.5-0.4 1.5 0 1.9z"/>
		<path d="m455.9 1546.7h0.1c0.3-0.1 0.9-0.3 1.3-0.4-0.5 0.1-1.1 0.2-1.4 0.4z"/>
		<path d="m421.8 1540.7c0.8 0.4 1.6 0.8 0 0z"/>
	</g><path id="mini-blob" transform="matrix(-1 0 0 1 1604.5 138.16)" d="m288.8 993c-7.7-11.4-20.7-15.8-33.9-12.6-11.4 2.7-20.7 10.9-26.8 20.6-12.4 19.6-10.7 43.2-10.5 65.3 0 5.3-0.1 10.7-0.7 16-1.8 4.2-3.3 8.5-3.5 13.1-0.4 6.5 2.3 13.6 7.3 17.9 5.1 4.3 11.8 6.6 18.5 5.8 7.6-0.9 13.6-4.3 19.3-9.1 8-6.8 14.8-15.7 20.3-24.7 5.5-9.1 9.8-19 12.7-29.2 2.8-10.1 4.3-20.7 4.3-31.2 0-10.7-0.9-22.9-7-31.9z" clip-path="url(#SVGID_2_)" fill="#267bb4"/></g>

</svg>
